# xmcd CD database file
#
# Track frame offsets:
#	150
#	16661
#	34409
#	47532
#	64055
#	79117
#	94911
#	110024
#	124429
#	141125
#	154863
#	164260
#	178500
#
# Disc length: 2607 seconds
#
# Revision: 2
# Processed by: cddbd v1.5.2PL0 Copyright (c) Steve Scherf et al.
# Submitted via: CDex 1.82
#
DISCID=ab0a2d0d
DTITLE=Ashleigh Dallas - Dancing With A Ghost
DYEAR=2013
DGENRE=Country
TTITLE0=Sail Away
TTITLE1=Dancing With A Ghost
TTITLE2=Devil's Flame
TTITLE3=Me
TTITLE4=The Candle
TTITLE5=Nothing At All
TTITLE6=Money
TTITLE7=You Don't Care
TTITLE8=Ridin' The Rails
TTITLE9=Carry Me
TTITLE10=Slapsister
TTITLE11=Taken
TTITLE12=Dear Brother
EXTD=YEAR: 2013
EXTT0=
EXTT1=
EXTT2=
EXTT3=
EXTT4=
EXTT5=
EXTT6=
EXTT7=
EXTT8=
EXTT9=
EXTT10=
EXTT11=
EXTT12=
PLAYORDER=
